HIERARCHY
ROOT ui
{
	 OFFSET 0 0 0
	 CHANNELS 3 XPosition YPosition Z Position
	 EndSite
	 {
	 OFFSET 0 -1 0
	 }
}
ROOT li
{
	 OFFSET 0 0 0
	 CHANNELS 3 XPosition YPosition Z Position
	 EndSite
	 {
	 OFFSET 0 -1 0
	 }
}
ROOT ul
{
	 OFFSET 0 0 0
	 CHANNELS 3 XPosition YPosition Z Position
	 EndSite
	 {
	 OFFSET 0 -1 0
	 }
}
ROOT ll
{
	 OFFSET 0 0 0
	 CHANNELS 3 XPosition YPosition Z Position
	 EndSite
	 {
	 OFFSET 0 -1 0
	 }
}
ROOT tt
{
	 OFFSET 0 0 0
	 CHANNELS 3 XPosition YPosition Z Position
	 EndSite
	 {
	 OFFSET 0 -1 0
	 }
}
ROOT tb
{
	 OFFSET 0 0 0
	 CHANNELS 3 XPosition YPosition Z Position
	 EndSite
	 {
	 OFFSET 0 -1 0
	 }
}
ROOT td
{
	 OFFSET 0 0 0
	 CHANNELS 3 XPosition YPosition Z Position
	 EndSite
	 {
	 OFFSET 0 -1 0
	 }
}
ROOT v
{
	 OFFSET 0 0 0
	 CHANNELS 3 XPosition YPosition Z Position
	 EndSite
	 {
	 OFFSET 0 -1 0
	 }
}
ROOT bn
{
	 OFFSET 0 0 0
	 CHANNELS 3 XPosition YPosition Z Position
	 EndSite
	 {
	 OFFSET 0 -1 0
	 }
}
MOTION
Frames: 29
Frame Time: 0.002
-0.0025309300422668457	9.07920002937317E-5	0		0.4746124267578125	-2.380394775390625	0		-0.992251953125	-0.07381674194335938	0		-0.7034244384765626	-2.0525546875	0		0.9890967407226563	-0.5890471801757813	0		3.07487646484375	-0.8402262573242187	0		4.39656787109375	0.5346854248046875	0		5.87775732421875	0.2220600128173828	0		-0.18463967895507813	5.86501220703125	0		
-0.028544328689575196	-0.007773714065551758	0		0.4726779174804687	-2.382474853515625	0		-0.9921921997070312	-0.0739305648803711	0		-0.7813224487304687	-2.049949462890625	0		0.9891618041992187	-0.589140380859375	0		3.19332470703125	-0.7993826293945312	0		4.39181396484375	0.5556727294921875	0		5.8606767578125	0.20717445373535157	0		-0.19974220275878907	5.854044921875	0		
0.0015651439428329469	-0.0041877741813659665	0		0.47277981567382815	-2.382607666015625	0		-0.9921173706054688	-0.07408072662353515	0		-0.7062642822265625	-2.05478466796875	0		0.99215087890625	-0.5992943725585937	0		3.18327099609375	-0.814391357421875	0		4.40007373046875	0.5765115356445313	0		5.86875732421875	0.20803131103515626	0		-0.16568333435058594	5.859591796875	0		
-0.02838226318359375	-0.008092144012451171	0		0.44996444702148436	-2.3755703125	0		-1.0580257568359375	-0.07366890716552735	0		-0.767128173828125	-2.052414794921875	0		0.9983106079101562	-0.592515625	0		3.127049560546875	-0.7400095825195312	0		4.40522705078125	0.5843447265625	0		5.873787109375	0.2018845672607422	0		-0.1695266571044922	5.8754462890625	0		
0.005784512042999268	-0.0016277149915695191	0		0.47910293579101565	-2.376052734375	0		-0.9878869018554688	-0.07054881286621094	0		-0.7269949951171875	-2.05301611328125	0		0.9955150756835938	-0.58269775390625	0		3.183486083984375	-0.8147046508789062	0		4.419513671875	0.6050578002929687	0		5.88091552734375	0.2046844482421875	0		-0.18560139465332032	5.86536669921875	0		
-0.02411598777770996	-0.004625737190246582	0		0.47725018310546874	-2.37829833984375	0		-0.9877601318359375	-0.07083729553222656	0		-0.7787872314453125	-2.0478260498046876	0		0.99855908203125	-0.5929799194335937	0		3.199336181640625	-0.7370633544921875	0		4.3967578125	0.6190691528320312	0		5.8729287109375	0.19258451843261717	0		-0.18557406616210936	5.86509130859375	0		
-0.0019252489805221557	-0.0011482759714126587	0		0.5034027404785156	-2.38384765625	0		-0.9876036987304687	-0.07117720794677734	0		-0.7026428833007813	-2.053853759765625	0		0.9927800903320313	-0.5872286987304688	0		3.131544189453125	-0.7327068481445312	0		4.40984619140625	0.6127108154296875	0		5.87603466796875	0.187344482421875	0		-0.18651832580566408	5.865775390625	0		
-0.023765056610107423	-0.005320691108703614	0		0.4486943359375	-2.37871044921875	0		-0.9874066162109375	-0.0715696029663086	0		-0.7334679565429687	-2.06095849609375	0		0.9929876098632813	-0.5875809936523437	0		3.103837646484375	-0.7237617797851562	0		4.40008447265625	0.6185183715820313	0		5.8811533203125	0.17904603576660155	0		-0.18644154357910156	5.8653994140625	0		
0.05151745986938477	-0.0024244511127471924	0		0.4779946594238281	-2.37938671875	0		-0.9871558227539062	-0.07201473236083984	0		-0.7561815185546875	-2.062189453125	0		0.9962858276367188	-0.5840099487304687	0		3.1338115234375	-0.7563875122070313	0		4.4154462890625	0.63205517578125	0		5.89348876953125	0.1886427764892578	0		-0.16924043273925782	5.8738173828125	0		
-0.01210990333557129	0.0036810219287872316	0		0.4574488830566406	-2.37066015625	0		-0.973739501953125	-0.06162999343872071	0		-0.7137916259765625	-2.06006103515625	0		1.0096239013671875	-0.583577880859375	0		3.127148681640625	-0.6457195434570312	0		4.40692822265625	0.6517661743164063	0		5.8968994140625	0.19928067016601564	0		-0.17104548645019532	5.875357421875	0		
0.05222505950927735	-0.0034195189476013185	0		0.5067901000976562	-2.38361328125	0		-0.98644482421875	-0.07306049346923828	0		-0.7273204956054687	-2.0574765625	0		1.0100303344726562	-0.5840761108398438	0		3.097179443359375	-0.6878924560546875	0		4.4171318359375	0.6322640380859375	0		5.8873134765625	0.20199534606933595	0		-0.18589102172851563	5.86496484375	0		
-0.023263233184814453	6.923819780349732E-4	0		0.4793536376953125	-2.3809208984375	0		-0.9859702758789063	-0.07365882873535157	0		-0.6918399658203125	-2.063382568359375	0		0.9944740600585937	-0.589477783203125	0		3.053319091796875	-0.6159815673828125	0		4.404642578125	0.6379248046875	0		5.89187060546875	0.2115419158935547	0		-0.200662353515625	5.85452294921875	0		
0.05325185775756836	-0.0046089100837707515	0		0.4779458312988281	-2.384509521484375	0		-0.985414306640625	-0.07430562591552735	0		-0.7692085571289062	-2.061322509765625	0		0.998079833984375	-0.5860975952148437	0		3.085861572265625	-0.6198046875	0		4.412125	0.6313626708984375	0		5.891427734375	0.21209181213378905	0		-0.18715223693847657	5.86678076171875	0		
-0.026112722396850585	-0.0045587501525878905	0		0.4626184997558594	-2.38801904296875	0		-0.9847800903320313	-0.07499906158447266	0		-0.7086551513671875	-2.077545166015625	0		0.9987283325195313	-0.5867355346679688	0		3.069047607421875	-0.5602258911132812	0		4.41779248046875	0.6367753295898437	0		5.896125	0.21955470275878905	0		-0.1866842498779297	5.866109375	0		
0.06164950180053711	9.561020135879516E-4	0		0.48346002197265625	-2.380893798828125	0		-0.9760127563476563	-0.06880809783935547	0		-0.7507576904296875	-2.062892578125	0		1.0034747924804688	-0.584452392578125	0		3.086392333984375	-0.6029978637695312	0		4.40554052734375	0.6433068237304688	0		5.89190234375	0.22805690002441406	0		-0.1861477508544922	5.86539453125	0		
-0.01758413887023926	9.175369739532471E-4	0		0.48227371215820314	-2.3836123046875	0		-0.9892647705078125	-0.07146200561523437	0		-0.67901806640625	-2.073294189453125	0		1.0061748046875	-0.59419140625	0		3.060759521484375	-0.5374228515625	0		4.4012236328125	0.6357272338867187	0		5.89672998046875	0.2354394073486328	0		-0.15150933837890626	5.86933740234375	0		
0.006196569919586181	-0.003074177026748657	0		0.481123291015625	-2.38736865234375	0		-0.9884545288085937	-0.07227803802490235	0		-0.7561389770507813	-2.072411376953125	0		1.00105322265625	-0.5888977661132813	0		3.0676181640625	-0.5341768188476562	0		4.40107568359375	0.6420732421875	0		5.88460302734375	0.24293408203125	0		-0.18590226745605468	5.86485498046875	0		
-0.023001256942749022	-0.007631316184997559	0		0.48000836181640627	-2.39015966796875	0		-0.98569580078125	-0.08214484405517578	0		-0.6823008422851562	-2.07989794921875	0		0.9910032348632812	-0.5785953369140625	0		3.014682861328125	-0.5104382019042969	0		4.40189404296875	0.6413737182617187	0		5.87251220703125	0.2513901214599609	0		-0.2192808837890625	5.85832763671875	0		
-0.015091249465942383	-0.001545768976211548	0		0.4669124755859375	-2.391875732421875	0		-0.98081005859375	-0.07905851745605469	0		-0.7423768310546875	-2.07823193359375	0		1.0027700805664062	-0.5905172119140625	0		3.036403564453125	-0.5273937377929687	0		4.3917255859375	0.6407359008789062	0		5.87347705078125	0.2646943664550781	0		-0.20250146484375	5.86732861328125	0		
-0.01020795726776123	0.0015416990518569947	0		0.489907958984375	-2.38293408203125	0		-0.9759335327148437	-0.07699536895751953	0		-0.66349658203125	-2.081811279296875	0		1.0137293701171874	-0.5804569091796875	0		2.996863037109375	-0.4598372497558594	0		4.41161865234375	0.646802978515625	0		5.882318359375	0.26389547729492185	0		-0.18284571838378907	5.8612802734375	0		
-0.019289602279663087	0.009732233047485352	0		0.48676861572265623	-2.38778369140625	0		-0.9850745239257812	-0.07582732391357422	0		-0.6775901489257813	-2.08059228515625	0		1.0174948120117187	-0.5913551635742188	0		2.920759765625	-0.4549899597167969	0		4.40343408203125	0.6450892944335938	0		5.86716064453125	0.264277587890625	0		-0.18412692260742186	5.86239697265625	0		
-0.012578263282775878	-0.0042306528091430665	0		0.4836022033691406	-2.393648681640625	0		-0.988282470703125	-0.08072432708740235	0		-0.6817632446289063	-2.086473876953125	0		1.0053245849609376	-0.5931303100585937	0		2.9929931640625	-0.41045806884765623	0		4.400193359375	0.6383094482421875	0		5.86305029296875	0.2715377502441406	0		-0.18342913818359374	5.861482421875	0		
-0.011768689155578613	-0.005151447772979737	0		0.457477294921875	-2.392324951171875	0		-0.9874713745117187	-0.08166436004638672	0		-0.670973876953125	-2.09449462890625	0		1.006145751953125	-0.594031005859375	0		2.950734130859375	-0.41994509887695314	0		4.38504296875	0.6436146850585938	0		5.85092431640625	0.2788456115722656	0		-0.1827352294921875	5.86055810546875	0		
0.05909292984008789	0.0013141909837722779	0		0.48731280517578124	-2.39349462890625	0		-0.976684326171875	-0.0836944351196289	0		-0.7051064453125	-2.09112841796875	0		0.9468662719726563	-0.60441796875	0		3.02508935546875	-0.35745574951171877	0		4.388826171875	0.6427394409179688	0		5.84371435546875	0.2780915832519531	0		-0.20199031066894532	5.865802734375	0		
-0.016081369400024415	0.006047205924987793	0		0.46317282104492186	-2.389197265625	0		-0.9778341064453125	-0.07661869049072266	0		-0.6642880859375	-2.091412353515625	0		1.0178343505859375	-0.584937744140625	0		2.97961572265625	-0.3879365844726563	0		4.38959619140625	0.6418793334960937	0		5.84055078125	0.28428790283203126	0		-0.18234359741210937	5.85970849609375	0		
0.011669050216674805	0.003890995979309082	0		0.4869017028808594	-2.397312744140625	0		-0.9810988159179688	-0.08051863098144531	0		-0.70652587890625	-2.094970947265625	0		0.9424749145507813	-0.6001888427734375	0		2.96976220703125	-0.34472772216796876	0		4.38640869140625	0.6480468139648438	0		5.84524658203125	0.27640496826171873	0		-0.1826487579345703	5.85979248046875	0		
-0.01458721923828125	0.004210221767425537	0		0.4606781921386719	-2.39598876953125	0		-0.9843983154296875	-0.08540804290771484	0		-0.6777285766601563	-2.091134521484375	0		1.0092471923828126	-0.5976644287109375	0		2.921484375	-0.3471884765625	0		4.36712841796875	0.6463494873046876	0		5.8201171875	0.2917735595703125	0		-0.18196481323242186	5.85987646484375	0		
-0.013885759353637695	0.003306610107421875	0		0.48636181640625	-2.401104736328125	0		-0.9796618041992188	-0.0823534927368164	0		-0.707071044921875	-2.09878369140625	0		0.9379730224609375	-0.5959385986328125	0		2.889267333984375	-0.3387857360839844	0		4.375712890625	0.6324094848632813	0		5.81674755859375	0.2829476928710937	0		-0.20126248168945313	5.86414404296875	0		
-0.013221510887145996	0.0024156169891357423	0		0.47100326538085935	-2.40585498046875	0		-0.97304052734375	-0.08830058288574219	0		-0.656468017578125	-2.108109130859375	0		0.9445880126953125	-0.6028767700195312	0		2.91073388671875	-0.36284375	0		4.3574267578125	0.63770263671875	0		5.81740185546875	0.2810837707519531	0		-0.19864273071289062	5.86123486328125	0		
